<svg width="24" height="24" viewBox="0 0 24 24" fill="none" xmlns="http://www.w3.org/2000/svg">
<g clip-path="url(#clip0_31_468)">
<path d="M19.07 4.93L4.93001 19.07C3.99998 18.1426 3.26236 17.0407 2.75954 15.8274C2.25672 14.6141 1.99859 13.3134 2.00001 12C2.00001 6.48 6.48001 2 12 2C14.76 2 17.26 3.12 19.07 4.93Z" stroke="white" stroke-width="1.5" stroke-linecap="round" stroke-linejoin="round"/>
<path d="M7.75969 16.2401L13.4097 21.9001M11.2897 12.7101L17.8697 19.2801M14.8297 9.17005L21.1197 15.4701M21.9997 12.0001C21.9997 17.5201 17.5197 22.0001 11.9997 22.0001C9.23969 22.0001 6.73969 20.8801 4.92969 19.0701L19.0697 4.93005C19.9997 5.85741 20.7373 6.95939 21.2402 8.17269C21.743 9.38599 22.0011 10.6867 21.9997 12.0001Z" stroke="white" stroke-width="1.5" stroke-linecap="round" stroke-linejoin="round"/>
</g>
<defs>
<clipPath id="clip0_31_468">
<rect width="24" height="24" fill="white"/>
</clipPath>
</defs>
</svg>
